<svg version="1.2" xmlns="http://www.w3.org/2000/svg" viewBox="0 0 800 800" width="800" height="800">
    <path
        d="m61.5 0h677c33.9 0 61.5 27.6 61.5 61.5v677c0 33.9-27.6 61.5-61.5 61.5h-677c-33.9 0-61.5-27.6-61.5-61.5v-677c0-33.9 27.6-61.5 61.5-61.5z" />
    <path class="a"
        stroke="#fff"
        stroke-width="30.8"
        d="m132.8 736.7c-4 0-8-0.8-11.7-2.3-3.8-1.6-7.2-3.9-10-6.7-2.9-2.9-5.1-6.3-6.7-10-1.5-3.7-2.3-7.7-2.3-11.8v-615.4c0-8.1 3.2-15.9 9-21.7 5.8-5.8 13.6-9 21.7-9 8.2 0 16 3.2 21.8 9 5.8 5.8 9 13.6 9 21.7v30.8h123.1c8.2 0 16 3.2 21.7 9 5.8 5.8 9.1 13.6 9.1 21.8 0 8.1-3.3 16-9.1 21.7-5.7 5.8-13.5 9-21.7 9h-123.1v184.7h246.2c8.1 0 16 3.2 21.7 9 5.8 5.7 9 13.6 9 21.7 0 8.2-3.2 16-9 21.8-5.7 5.8-13.6 9-21.7 9h-246.2v184.6h61.6c8.1 0 15.9 3.3 21.7 9 5.8 5.8 9 13.6 9 21.8 0 8.1-3.2 16-9 21.7-5.8 5.8-13.6 9.1-21.7 9.1h-61.6v30.7c0 4.1-0.8 8.1-2.3 11.8-1.6 3.7-3.8 7.1-6.7 10-2.9 2.8-6.2 5.1-10 6.7-3.7 1.5-7.7 2.3-11.8 2.3zm553.9-615.4h-246.2v-30.8c0-8.1-3.2-15.9-9-21.7-5.7-5.8-13.6-9-21.7-9-8.2 0-16 3.2-21.8 9-5.8 5.8-9 13.6-9 21.7v61.6 61.5c0 8.2 3.2 16 9 21.8 5.8 5.7 13.6 9 21.8 9 8.1 0 16-3.3 21.7-9 5.8-5.8 9-13.6 9-21.8v-30.8h246.2c8.2 0 16-3.2 21.7-9 5.8-5.7 9.1-13.6 9.1-21.7 0-8.2-3.3-16-9.1-21.8-5.7-5.8-13.5-9-21.7-9zm0 246.2h-123.1v-30.8c0-8.2-3.2-16-9-21.8-5.8-5.7-13.6-9-21.8-9-8.1 0-15.9 3.3-21.7 9-5.8 5.8-9 13.6-9 21.8v61.5 61.6c0 8.1 3.2 16 9 21.7 5.8 5.8 13.6 9 21.7 9 8.2 0 16-3.2 21.8-9 5.8-5.7 9-13.6 9-21.7v-30.8h123.1c8.2 0 16-3.2 21.7-9 5.8-5.8 9.1-13.6 9.1-21.8 0-8.1-3.3-16-9.1-21.7-5.7-5.8-13.5-9-21.7-9zm0 246.1h-307.7v-30.8c0-8.1-3.2-15.9-9-21.7-5.8-5.8-13.6-9-21.8-9-8.1 0-16 3.2-21.7 9-5.8 5.8-9 13.6-9 21.7v61.6 61.5c0 8.2 3.2 16 9 21.8 5.7 5.8 13.6 9 21.7 9 8.2 0 16-3.2 21.8-9 5.8-5.8 9-13.6 9-21.8v-30.7h307.7c8.2 0 16-3.3 21.7-9.1 5.8-5.7 9.1-13.6 9.1-21.7 0-8.2-3.3-16-9.1-21.8-5.7-5.7-13.5-9-21.7-9z" />
</svg>