<svg width="160" height="160" viewBox="0 0 160 160" fill="none" xmlns="http://www.w3.org/2000/svg">
    <g clip-path="url(#clip0_5_366)">
        <rect width="160" height="160" rx="40" fill="white" />
        <rect y="39" width="62" height="12" fill="#0A3229" />
        <rect x="74" y="39" width="12" height="12" fill="#0A3229" />
        <rect x="98" y="39" width="62" height="12" fill="#0A3229" />
        <rect y="53" width="59" height="12" fill="#0A3229" />
        <rect x="71" y="53" width="18" height="12" fill="#0A3229" />
        <rect x="101" y="53" width="59" height="12" fill="#0A3229" />
        <rect y="67" width="54" height="12" fill="#0A3229" />
        <rect x="66" y="67" width="28" height="12" fill="#0A3229" />
        <rect x="106" y="67" width="54" height="12" fill="#0A3229" />
        <rect y="81" width="49" height="12" fill="#0A3229" />
        <rect x="61" y="81" width="38" height="12" fill="#0A3229" />
        <rect x="111" y="81" width="49" height="12" fill="#0A3229" />
        <rect y="95" width="43" height="12" fill="#0A3229" />
        <rect x="55" y="95" width="50" height="12" fill="#0A3229" />
        <rect x="117" y="95" width="43" height="12" fill="#0A3229" />
        <rect y="109" width="37.5" height="12" fill="#0A3229" />
        <rect x="49.5" y="109" width="61" height="12" fill="#0A3229" />
        <rect x="122.5" y="109" width="37.5" height="12" fill="#0A3229" />
        <rect x="75" width="10" height="160" fill="#F5423B" />
    </g>
    <defs>
        <clipPath id="clip0_5_366">
            <rect width="160" height="160" rx="40" fill="white" />
        </clipPath>
    </defs>
</svg>